<?xml version="1.0" encoding="iso-8859-1"?>
<!-- Generator: Adobe Illustrator 19.1.0, SVG Export Plug-In . SVG Version: 6.00 Build 0)  -->
<svg xmlns="http://www.w3.org/2000/svg" xmlns:xlink="http://www.w3.org/1999/xlink" version="1.1" id="Capa_1" x="0px" y="0px" viewBox="0 0 533.396 533.396" style="enable-background:new 0 0 533.396 533.396;" xml:space="preserve" width="512px" height="512px">
<g>
	<g>
		<g>
			<circle cx="263.071" cy="150.098" r="150.098" fill="#FFFFFF"/>
			<path d="M339.099,429.035c0-51.232,41.532-92.764,92.766-92.764c1.326,0,2.643,0.045,3.954,0.101     c-21.31-41.854-45.84-76.063-45.84-76.063s-57.977,63.184-139.147,57.978c-81.169-5.206-115.956-57.978-115.956-57.978     S7.325,376.264,53.708,469.029c46.382,92.764,301.486,57.977,301.486,57.977s19.563-1.466,43.128-11.485     C363.674,502.072,339.099,468.435,339.099,429.035z" fill="#FFFFFF"/>
			<path d="M478.248,417.44H443.46h-23.191h-34.787c-6.404,0-11.596,5.192-11.596,11.596s5.191,11.597,11.596,11.597h34.787h23.191     h34.787c6.404,0,11.596-5.192,11.596-11.597C489.842,422.632,484.651,417.44,478.248,417.44z" fill="#FFFFFF"/>
		</g>
	</g>
	<g>
	</g>
	<g>
	</g>
	<g>
	</g>
	<g>
	</g>
	<g>
	</g>
	<g>
	</g>
	<g>
	</g>
	<g>
	</g>
	<g>
	</g>
	<g>
	</g>
	<g>
	</g>
	<g>
	</g>
	<g>
	</g>
	<g>
	</g>
	<g>
	</g>
</g>
<g>
</g>
<g>
</g>
<g>
</g>
<g>
</g>
<g>
</g>
<g>
</g>
<g>
</g>
<g>
</g>
<g>
</g>
<g>
</g>
<g>
</g>
<g>
</g>
<g>
</g>
<g>
</g>
<g>
</g>
</svg>
